<?xml version="1.0" encoding="UTF-8"?>
<svg width="169px" height="50px" viewBox="0 0 169 50" version="1.1" xmlns="http://www.w3.org/2000/svg" xmlns:xlink="http://www.w3.org/1999/xlink">
    <!-- Generator: Sketch 49 (51002) - http://www.bohemiancoding.com/sketch -->
    <title>appstore white</title>
    <desc>Created with Sketch.</desc>
    <defs></defs>
    <g id="appstore-white" stroke="none" stroke-width="1" fill="none" fill-rule="evenodd">
        <path d="M162.740741,50 L6.25925926,50 C2.75407407,50 0,47.25 0,43.75 L0,6.25 C0,2.74999999 2.75407407,0 6.25925926,0 L162.740741,0 C166.245926,0 169,2.74999999 169,6.25 L169,43.75 C169,47.125 166.245926,50 162.740741,50 Z" id="Shape" fill="#FFFFFF" fill-rule="nonzero"></path>
        <g id="Group" transform="translate(12.000000, 8.000000)" fill="#000000" fill-rule="nonzero">
            <path d="M22.4535354,18.5053021 C22.4866836,15.9325782 23.8354521,13.5561648 26.0272979,12.2086417 C24.6382798,10.2248796 22.3951722,9.01222368 19.9746458,8.93649167 C17.4280458,8.66917917 14.9592479,10.4603333 13.6615208,10.4603333 C12.3387104,10.4603333 10.3407063,8.96303333 8.18916875,9.00729375 C5.35832373,9.0987532 2.78318538,10.6692356 1.40592083,13.1441479 C-1.52694792,18.2220646 0.6607125,25.684925 3.47020625,29.7895646 C4.87586458,31.7994833 6.5186625,34.0446021 8.66826042,33.9649917 C10.7717604,33.8777396 11.5573792,32.6236604 14.0964688,32.6236604 C16.6120063,32.6236604 17.3490625,33.9649917 19.5422792,33.9143729 C21.7994438,33.8777396 23.2215375,31.8955292 24.5779042,29.8665792 C25.5878683,28.4344425 26.3650337,26.8516191 26.8806125,25.1767396 C24.1997921,24.0428846 22.4566553,21.4160435 22.4535354,18.5053021 Z" id="_Path_"></path>
            <path d="M18.3109938,6.23701458 C19.5416972,4.75961385 20.1480209,2.86065954 20.0012021,0.943425 C18.1209781,1.1409051 16.3841774,2.03952912 15.1368583,3.46024583 C13.9051865,4.86197555 13.2812249,6.69581418 13.4024042,8.55785 C15.3078309,8.57746364 17.1169922,7.72207216 18.3109938,6.23701458 Z" id="_Path_2"></path>
        </g>
        <g id="Group-2" transform="translate(51.000000, 23.000000)" fill="#000000" fill-rule="nonzero">
            <path d="M9.877225,11.9245625 L3.960475,11.9245625 L2.539575,16.120125 L0.033475,16.120125 L5.637725,0.597625 L8.241475,0.597625 L13.845725,16.120125 L11.2969,16.120125 L9.877225,11.9245625 Z M4.573275,9.988525 L9.263275,9.988525 L6.95125,3.1794375 L6.8865,3.1794375 L4.573275,9.988525 Z" id="Shape"></path>
            <path d="M25.949,10.4621625 C25.949,13.9790125 24.066675,16.238525 21.2261,16.238525 C19.7578316,16.3153308 18.374803,15.5462884 17.6653125,14.258525 L17.6115625,14.258525 L17.6115625,19.864 L15.2885625,19.864 L15.2885625,4.802975 L17.5371,4.802975 L17.5371,6.6853 L17.579825,6.6853 C18.3208354,5.4056099 19.7053553,4.63689855 21.1833375,4.6845625 C24.0556875,4.684575 25.949,6.955075 25.949,10.4621625 Z M23.5613,10.4621625 C23.5613,8.1709125 22.3772125,6.66455 20.570575,6.66455 C18.795675,6.66455 17.601825,8.2026375 17.601825,10.4621625 C17.601825,12.7424375 18.795675,14.2695375 20.570575,14.2695375 C22.377225,14.2695375 23.56125,12.774175 23.56125,10.4621625 L23.5613,10.4621625 Z" id="Shape"></path>
            <path d="M38.4056625,10.4621625 C38.4056625,13.9790125 36.522725,16.238525 33.68215,16.238525 C32.2138816,16.3153308 30.830853,15.5462884 30.1213625,14.258525 L30.0676125,14.258525 L30.0676125,19.864 L27.7446125,19.864 L27.7446125,4.802975 L29.99315,4.802975 L29.99315,6.6853 L30.035875,6.6853 C30.7768854,5.4056099 32.1614053,4.63689855 33.6393875,4.6845625 C36.51175,4.684575 38.4056625,6.955075 38.4056625,10.4621625 Z M36.0173625,10.4621625 C36.0173625,8.1709125 34.833275,6.66455 33.0266375,6.66455 C31.2517375,6.66455 30.0578875,8.2026375 30.0578875,10.4621625 C30.0578875,12.7424375 31.2517375,14.2695375 33.0266375,14.2695375 C34.833275,14.2695375 36.0173625,12.774175 36.0173625,10.4621625 Z" id="Shape"></path>
            <path d="M46.6368625,11.7951625 C46.8089875,13.334475 48.3043625,14.3451625 50.3478,14.3451625 C52.3058125,14.3451625 53.7145,13.334425 53.7145,11.946475 C53.7145,10.7416375 52.8648875,10.020225 50.853175,9.525825 L48.8414625,9.0412 C45.991125,8.352725 44.667875,7.0197125 44.667875,4.856625 C44.667875,2.1784 47.0018625,0.3388 50.31485,0.3388 C53.5961,0.3388 55.8446375,2.1784 55.920325,4.856625 L53.575325,4.856625 C53.43495,3.30755 52.154425,2.3725 50.2830875,2.3725 C48.41175,2.3725 47.1312375,3.31855 47.1312375,4.6955 C47.1312375,5.7929125 47.9491125,6.4386625 49.9498375,6.933 L51.6600375,7.352925 C54.84485,8.1061 56.166875,9.385425 56.166875,11.6559 C56.166875,14.55995 53.8548625,16.3788 50.175625,16.3788 C46.7332375,16.3788 44.409025,14.602675 44.258875,11.79505 L46.6368625,11.7951625 Z" id="Shape"></path>
            <path d="M61.1827625,2.12475 L61.1827625,4.802975 L63.3348625,4.802975 L63.3348625,6.642575 L61.1827625,6.642575 L61.1827625,12.8815875 C61.1827625,13.850825 61.613675,14.3024875 62.5597125,14.3024875 C62.8152018,14.2980324 63.0702777,14.2800908 63.323875,14.2487375 L63.323875,16.07735 C62.8985354,16.1568244 62.4662135,16.1928181 62.0335875,16.184775 C59.7423375,16.184775 58.848775,15.324175 58.848775,13.12935 L58.848775,6.642575 L57.203275,6.642575 L57.203275,4.802975 L58.84875,4.802975 L58.84875,2.12475 L61.1827625,2.12475 Z" id="Shape"></path>
            <path d="M64.58,10.4621625 C64.58,6.901375 66.6771625,4.663825 69.9474375,4.663825 C73.2286875,4.663825 75.3160875,6.901325 75.3160875,10.4621625 C75.3160875,14.032725 73.239675,16.2605 69.9474375,16.2605 C66.6564,16.2605 64.58,14.0327125 64.58,10.4621625 Z M72.9491375,10.4621625 C72.9491375,8.0195375 71.82975,6.5778875 69.947425,6.5778875 C68.0651,6.5778875 66.9457125,8.030525 66.9457125,10.4621625 C66.9457125,12.91455 68.0651,14.345225 69.947425,14.345225 C71.82975,14.345225 72.949125,12.91455 72.949125,10.4621625 L72.9491375,10.4621625 Z" id="Shape"></path>
            <path d="M77.23135,4.802975 L79.446925,4.802975 L79.446925,6.729225 L79.500675,6.729225 C79.8096451,5.48921051 80.9458407,4.63578945 82.2228375,4.68455 C82.4905426,4.68361529 82.757509,4.71268843 83.0187375,4.771225 L83.0187375,6.944075 C82.6807762,6.84080415 82.3282245,6.79338911 81.9749875,6.8037 C81.2920478,6.7759943 80.6311136,7.04816841 80.1657268,7.54875747 C79.70034,8.04934652 79.4769957,8.72833843 79.5543375,9.40745 L79.5543375,16.1201 L77.2313375,16.1201 L77.23135,4.802975 Z" id="Shape"></path>
            <path d="M93.72915,12.7961375 C93.41665,14.850575 91.4159125,16.2604875 88.8561,16.2604875 C85.5638625,16.2604875 83.5204125,14.054675 83.5204125,10.5158625 C83.5204125,6.9660625 85.57485,4.6638125 88.75845,4.6638125 C91.88955,4.6638125 93.85855,6.8146875 93.85855,10.2460875 L93.85855,11.0419875 L85.8653875,11.0419875 L85.8653875,11.1823625 C85.7907593,12.024902 86.0816895,12.8588993 86.6641749,13.4722124 C87.2466603,14.0855255 88.0645594,14.4190416 88.909825,14.387925 C90.0371278,14.4935495 91.0999538,13.8462221 91.52335,12.796125 L93.72915,12.7961375 Z M85.876353,9.4184625 L91.534325,9.41845 C91.5764818,8.66137187 91.3008956,7.92102885 90.7739626,7.37578943 C90.2470295,6.83055001 89.516526,6.52985051 88.75845,6.5461375 C87.9943772,6.54157779 87.2601384,6.84241829 86.7189319,7.38179156 C86.1777254,7.92116483 85.8743953,8.65437865 85.876353,9.4184625 Z" id="Shape"></path>
        </g>
        <g id="Group-3" transform="translate(51.000000, 11.000000)" fill="#000000" fill-rule="nonzero">
            <path d="M3.2827375,0.91375 C4.2689207,0.842980227 5.23486533,1.21818429 5.91470161,1.93608977 C6.59453789,2.65399526 6.91660734,3.63893099 6.7922625,4.6198 C6.7922625,7.0026125 5.504425,8.3723 3.2827375,8.3723 L0.58865,8.3723 L0.58865,0.91375 L3.2827375,0.91375 Z M1.7470875,7.3175 L3.1533375,7.3175 C3.85811493,7.35962751 4.54435815,7.08194876 5.02152314,6.56156474 C5.49868813,6.04118072 5.71597451,5.33349302 5.61305,4.635 C5.70848627,3.93940567 5.48807073,3.23755777 5.01208884,2.72141748 C4.53610696,2.20527718 3.85436959,1.92885787 3.1533375,1.9677625 L1.7470875,1.9677625 L1.7470875,7.3175 Z" id="Shape"></path>
            <path d="M8.10085,5.555425 C8.00433391,4.54653131 8.48810458,3.57013992 9.34926991,3.03574671 C10.2104352,2.5013535 11.3001023,2.5013535 12.1612676,3.03574671 C13.0224329,3.57013992 13.5062036,4.54653131 13.4096875,5.555425 C13.5080399,6.56540283 13.0247108,7.54368798 12.1627819,8.07923163 C11.300853,8.61477527 10.2096845,8.61477527 9.34775557,8.07923163 C8.48582668,7.54368798 8.00249757,6.56540283 8.10085,5.555425 Z M12.2671,5.555425 C12.2671,4.3353375 11.719,3.6218375 10.7571,3.6218375 C9.791525,3.6218375 9.24835,4.3353375 9.24835,5.5554375 C9.24835,6.7853 9.7915625,7.4933 10.7571,7.4933 C11.719025,7.4932875 12.2671125,6.7804 12.2671125,5.555425 L12.2671,5.555425 Z" id="Shape"></path>
            <polygon id="Shape" points="20.466575 8.3721875 19.3142375 8.3721875 18.1509125 4.226675 18.063025 4.226675 16.904575 8.3721875 15.7632125 8.3721875 14.2117 2.743525 15.3384125 2.743525 16.3467125 7.038525 16.429725 7.038525 17.58695 2.743525 18.652625 2.743525 19.80985 7.038525 19.8977375 7.038525 20.90115 2.743525 22.0119875 2.743525"></polygon>
            <path d="M23.316925,2.743525 L24.38625,2.743525 L24.38625,3.6376875 L24.4692625,3.6376875 C24.7579311,2.97934742 25.4324661,2.57663434 26.14895,2.634875 C26.703721,2.59316471 27.2473573,2.80598738 27.6263635,3.21325259 C28.0053696,3.6205178 28.1786163,4.1780297 28.0971875,4.728375 L28.0971875,8.372125 L26.98635,8.372125 L26.98635,5.007325 C26.98635,4.1027875 26.5932875,3.65295 25.77175,3.65295 C25.3954573,3.6354239 25.0302752,3.78310321 24.7719433,4.05727098 C24.5136113,4.33143875 24.3878938,4.70475126 24.42775,5.0793375 L24.42775,8.3721875 L23.3169125,8.3721875 L23.316925,2.743525 Z" id="Shape"></path>
            <polygon id="Shape" points="29.8672125 0.54625 30.97805 0.54625 30.97805 8.372175 29.8672125 8.372175"></polygon>
            <path d="M32.5222375,5.555425 C32.4257955,4.54646531 32.9096425,3.5700492 33.7708717,3.03564775 C34.632101,2.5012463 35.721824,2.5012463 36.5830533,3.03564775 C37.4442825,3.5700492 37.9281295,4.54646531 37.8316875,5.555425 C37.929915,6.56543899 37.4464973,7.54369649 36.5845257,8.07921655 C35.722554,8.61473661 34.631371,8.61473661 33.7693993,8.07921655 C32.9074277,7.54369649 32.42401,6.56543899 32.5222375,5.555425 Z M36.6884875,5.555425 C36.6884875,4.3353375 36.1403875,3.6218375 35.1784875,3.6218375 C34.2129125,3.6218375 33.6697375,4.3353375 33.6697375,5.5554375 C33.6697375,6.7853 34.21295,7.4933 35.1784875,7.4933 C36.1404,7.4932875 36.6885,6.7804 36.6885,5.555425 L36.6884875,5.555425 Z" id="Shape"></path>
            <path d="M39.001125,6.7804 C39.001125,5.7672125 39.755525,5.1831125 41.094625,5.1001 L42.6192875,5.0122125 L42.6192875,4.526375 C42.6192875,3.9318875 42.226225,3.5962 41.46695,3.5962 C40.8468375,3.5962 40.41715,3.8238625 40.29385,4.2218125 L39.2184125,4.2218125 C39.3319375,3.2550125 40.2413625,2.6349 41.5182125,2.6349 C42.92935,2.6349 43.72525,3.3374 43.72525,4.526375 L43.72525,8.3722 L42.6559125,8.3722 L42.6559125,7.5811875 L42.568025,7.5811875 C42.2048357,8.15884542 41.5589671,8.49645404 40.87735,8.4649375 C40.3995202,8.51463977 39.9229639,8.35988833 39.5654948,8.03894056 C39.2080256,7.71799279 39.0030076,7.26080414 39.001125,6.7804 Z M42.6192875,6.2994375 L42.6192875,5.8288625 L41.244775,5.91675 C40.469625,5.968625 40.1180625,6.2323 40.1180625,6.7285125 C40.1180625,7.2351 40.5575125,7.5299 41.1618125,7.5299 C41.5195451,7.56611233 41.876658,7.45559382 42.1514005,7.22364449 C42.426143,6.99169516 42.5949895,6.65817632 42.6192875,6.2994375 Z" id="Shape"></path>
            <path d="M45.1852,5.555425 C45.1852,3.7768625 46.0995125,2.65015 47.521625,2.65015 C48.239721,2.61706267 48.9122844,3.00184108 49.2477,3.63765 L49.3307125,3.63765 L49.3307125,0.54625 L50.44155,0.54625 L50.44155,8.372175 L49.3771,8.372175 L49.3771,7.4828875 L49.2892125,7.4828875 C48.9284427,8.11342123 48.2475932,8.49169559 47.5216375,8.4649375 C46.08975,8.465 45.1852,7.3382625 45.1852,5.555425 Z M46.3327,5.555425 C46.3327,6.749275 46.89545,7.4676625 47.8366125,7.4676625 C48.7728625,7.4676625 49.3515,6.7389125 49.3515,5.5603125 C49.3515,4.3872125 48.7667875,3.648075 47.8366125,3.648075 C46.9015125,3.648075 46.3326625,4.3713375 46.3326625,5.555425 L46.3327,5.555425 Z" id="Shape"></path>
            <path d="M55.0375,5.555425 C54.9409839,4.54653131 55.4247546,3.57013992 56.2859199,3.03574671 C57.1470852,2.5013535 58.2367523,2.5013535 59.0979176,3.03574671 C59.9590829,3.57013992 60.4428536,4.54653131 60.3463375,5.555425 C60.4446899,6.56540283 59.9613608,7.54368798 59.0994319,8.07923163 C58.237503,8.61477527 57.1463345,8.61477527 56.2844056,8.07923163 C55.4224767,7.54368798 54.9391476,6.56540283 55.0375,5.555425 Z M59.20375,5.555425 C59.20375,4.3353375 58.65565,3.6218375 57.69375,3.6218375 C56.728175,3.6218375 56.185,4.3353375 56.185,5.5554375 C56.185,6.7853 56.7282125,7.4933 57.69375,7.4933 C58.6556625,7.4932875 59.20375,6.7804 59.20375,5.555425 Z" id="Shape"></path>
            <path d="M61.8368125,2.743525 L62.90615,2.743525 L62.90615,3.6376875 L62.9891625,3.6376875 C63.2778311,2.97934742 63.9523661,2.57663434 64.66885,2.634875 C65.223621,2.59316471 65.7672573,2.80598738 66.1462635,3.21325259 C66.5252696,3.6205178 66.6985163,4.1780297 66.6170875,4.728375 L66.6170875,8.372125 L65.50625,8.372125 L65.50625,5.007325 C65.50625,4.1027875 65.1131875,3.65295 64.29165,3.65295 C63.9153573,3.6354239 63.5501752,3.78310321 63.2918433,4.05727098 C63.0335113,4.33143875 62.9077938,4.70475126 62.94765,5.0793375 L62.94765,8.3721875 L61.8368125,8.3721875 L61.8368125,2.743525 Z" id="Shape"></path>
            <path d="M72.89395,1.3421625 L72.89395,2.7691625 L74.1134375,2.7691625 L74.1134375,3.7048375 L72.89395,3.7048375 L72.89395,6.599125 C72.89395,7.188725 73.136875,7.4469 73.68985,7.4469 C73.8314195,7.44644692 73.9728468,7.43788708 74.1134375,7.4212625 L74.1134375,8.34655 C73.9139494,8.3822384 73.711832,8.40122505 73.5091875,8.4033125 C72.2738375,8.4033125 71.7818875,7.9687375 71.7818875,6.8835375 L71.7818875,3.7047875 L70.8883375,3.7047875 L70.8883375,2.7691125 L71.7818875,2.7691125 L71.7818875,1.3421625 L72.89395,1.3421625 Z" id="Shape"></path>
            <path d="M75.6307625,0.54625 L76.7318375,0.54625 L76.7318375,3.6480625 L76.819725,3.6480625 C77.1222597,2.9839607 77.8086002,2.58073443 78.535975,2.6397625 C79.0875958,2.6097466 79.6238729,2.82725464 79.9987366,3.23304232 C80.3736003,3.63882999 80.5480062,4.19063205 80.47445,4.73815 L80.47445,8.3721875 L79.3625,8.3721875 L79.3625,5.0121875 C79.3625,4.1131375 78.94375,3.6578125 78.1588875,3.6578125 C77.7724237,3.62611709 77.3916739,3.7666137 77.1184279,4.04174188 C76.845182,4.31687006 76.7073024,4.69857539 76.74165,5.0848125 L76.74165,8.3721625 L75.6308125,8.3721625 L75.6307625,0.54625 Z" id="Shape"></path>
            <path d="M86.9515625,6.8524125 C86.6400713,7.91413685 85.6126236,8.6001288 84.5126,8.480825 C83.7620549,8.50063775 83.0407393,8.18953837 82.5400353,7.63006895 C82.0393313,7.07059953 81.809858,6.31931992 81.9125,5.5755625 C81.8125842,4.82973809 82.0411978,4.07725467 82.5391135,3.51305869 C83.0370293,2.94886272 83.7552525,2.62847094 84.5077125,2.6348875 C86.073875,2.6348875 87.0187,3.7048875 87.0187,5.4723875 L87.0187,5.86 L83.0440875,5.86 L83.0440875,5.92225 C83.008915,6.33992518 83.1515634,6.75305969 83.436951,7.06005087 C83.7223386,7.36704206 84.1239848,7.5394049 84.5431125,7.53475 C85.0865773,7.59999335 85.6156031,7.3304163 85.882225,6.852375 L86.9515625,6.8524125 Z M83.0440625,5.03845 L85.887075,5.03845 C85.9153911,4.65645055 85.7810731,4.28025634 85.5172212,4.00257387 C85.2533692,3.72489139 84.8845219,3.57154528 84.501575,3.580325 C84.11344,3.57544864 83.739785,3.72752654 83.4653704,4.0020611 C83.1909559,4.27659566 83.0390414,4.65031717 83.0440875,5.03845 L83.0440625,5.03845 Z" id="Shape"></path>
        </g>
    </g>
</svg>