<?xml version="1.0" encoding="UTF-8"?>
<svg width="169px" height="50px" viewBox="0 0 169 50" version="1.1" xmlns="http://www.w3.org/2000/svg" xmlns:xlink="http://www.w3.org/1999/xlink">
    <!-- Generator: Sketch 49 (51002) - http://www.bohemiancoding.com/sketch -->
    <title>googleplay black</title>
    <desc>Created with Sketch.</desc>
    <defs>
        <linearGradient x1="91.5361538%" y1="37.7884116%" x2="-37.5592308%" y2="55.9402553%" id="linearGradient-1">
            <stop stop-color="#00A0FF" offset="0%"></stop>
            <stop stop-color="#00A1FF" offset="0.657445%"></stop>
            <stop stop-color="#00BEFF" offset="26.01%"></stop>
            <stop stop-color="#00D2FF" offset="51.22%"></stop>
            <stop stop-color="#00DFFF" offset="76.04%"></stop>
            <stop stop-color="#00E3FF" offset="100%"></stop>
        </linearGradient>
        <linearGradient x1="107.728079%" y1="49.4282353%" x2="-130.665025%" y2="49.4282353%" id="linearGradient-2">
            <stop stop-color="#FFE000" offset="0%"></stop>
            <stop stop-color="#FFBD00" offset="40.87%"></stop>
            <stop stop-color="#FFA500" offset="77.54%"></stop>
            <stop stop-color="#FF9C00" offset="100%"></stop>
        </linearGradient>
        <linearGradient x1="71.674422%" y1="17.8150459%" x2="-9.49605661%" y2="194.392791%" id="linearGradient-3">
            <stop stop-color="#FF3A44" offset="0%"></stop>
            <stop stop-color="#C31162" offset="100%"></stop>
        </linearGradient>
        <linearGradient x1="9.53071894%" y1="-54.5266535%" x2="45.4413003%" y2="24.6901019%" id="linearGradient-4">
            <stop stop-color="#32A071" offset="0%"></stop>
            <stop stop-color="#2DA771" offset="6.85%"></stop>
            <stop stop-color="#15CF74" offset="47.62%"></stop>
            <stop stop-color="#06E775" offset="80.09%"></stop>
            <stop stop-color="#00F076" offset="100%"></stop>
        </linearGradient>
    </defs>
    <g id="googleplay-black" stroke="none" stroke-width="1" fill="none" fill-rule="evenodd">
        <path d="M162.740741,50 L6.25925926,50 C2.75407407,50 0,47.25 0,43.75 L0,6.25 C0,2.74999999 2.75407407,0 6.25925926,0 L162.740741,0 C166.245926,0 169,2.74999999 169,6.25 L169,43.75 C169,47.125 166.245926,50 162.740741,50 Z" id="Shape" fill="#262C32" fill-rule="nonzero"></path>
        <g id="Group" transform="translate(51.325926, 8.511111)" fill="#FFFFFF" fill-rule="nonzero">
            <g id="Group-2">
                <path d="M8.01185185,4.25777778 C8.01185185,5.25925926 7.76148148,6.13555556 7.13555556,6.76148148 C6.38444444,7.51259259 5.50814815,7.88814815 4.38148148,7.88814815 C3.25481481,7.88814815 2.37851852,7.51259259 1.62740741,6.76148148 C0.876296296,6.01037037 0.500740741,5.13407407 0.500740741,4.00740741 C0.500740741,2.88074074 0.876296296,2.00444444 1.62740741,1.25333333 C2.37851852,0.50222222 3.25481481,0.12666667 4.38148148,0.12666667 C4.88222222,0.12666667 5.38296296,0.25185185 5.8837037,0.50222222 C6.38444444,0.75259259 6.76,1.00296296 7.01037037,1.37851852 L6.38444444,2.00444444 C5.8837037,1.37851852 5.25777778,1.12814815 4.38148148,1.12814815 C3.63037037,1.12814815 2.87925926,1.37851852 2.37851852,2.00444444 C1.75259259,2.50518519 1.50222222,3.2562963 1.50222222,4.13259259 C1.50222222,5.00888889 1.75259259,5.76 2.37851852,6.26074074 C3.00444444,6.76148148 3.63037037,7.13703704 4.38148148,7.13703704 C5.25777778,7.13703704 5.8837037,6.88666667 6.50962963,6.26074074 C6.88518519,5.88518519 7.13555556,5.38444444 7.13555556,4.75851852 L4.38148148,4.75851852 L4.38148148,3.88222222 L8.01185185,3.88222222 C8.01185185,3.88222222 8.01185185,4.13259259 8.01185185,4.25777778 Z" id="Shape"></path>
                <polygon id="Shape" points="13.7703704 1.12814815 10.3903704 1.12814815 10.3903704 3.50666667 13.52 3.50666667 13.52 4.38296296 10.3903704 4.38296296 10.3903704 6.76148148 13.7703704 6.76148148 13.7703704 7.76296296 9.38888889 7.76296296 9.38888889 0.25185185 13.7703704 0.25185185"></polygon>
                <polygon id="Shape" points="17.9014815 7.76296296 16.9 7.76296296 16.9 1.12814815 14.7718519 1.12814815 14.7718519 0.25185185 20.0296296 0.25185185 20.0296296 1.12814815 17.9014815 1.12814815"></polygon>
                <polygon id="Shape" points="23.66 7.76296296 23.66 0.25185185 24.6614815 0.25185185 24.6614815 7.76296296"></polygon>
                <polygon id="Shape" points="28.9177778 7.76296296 27.9162963 7.76296296 27.9162963 1.12814815 25.7881481 1.12814815 25.7881481 0.25185185 30.9207407 0.25185185 30.9207407 1.12814815 28.7925926 1.12814815 28.7925926 7.76296296"></polygon>
                <path d="M40.8103704,6.76148148 C40.0592593,7.51259259 39.182963,7.88814815 38.0562963,7.88814815 C36.9296296,7.88814815 36.0533333,7.51259259 35.3022222,6.76148148 C34.5511111,6.01037037 34.1755556,5.13407407 34.1755556,4.00740741 C34.1755556,2.88074074 34.5511111,2.00444444 35.3022222,1.25333333 C36.0533333,0.50222222 36.9296296,0.12666667 38.0562963,0.12666667 C39.182963,0.12666667 40.0592593,0.50222222 40.8103704,1.25333333 C41.5614815,2.00444444 41.937037,2.88074074 41.937037,4.00740741 C41.937037,5.13407407 41.5614815,6.01037037 40.8103704,6.76148148 Z M36.0533333,6.13555556 C36.5540741,6.6362963 37.3051852,7.01185185 38.0562963,7.01185185 C38.8074074,7.01185185 39.5585185,6.76148148 40.0592593,6.13555556 C40.56,5.63481481 40.9355556,4.8837037 40.9355556,4.00740741 C40.9355556,3.13111111 40.6851852,2.38 40.0592593,1.87925926 C39.5585185,1.37851852 38.8074074,1.00296296 38.0562963,1.00296296 C37.3051852,1.00296296 36.5540741,1.25333333 36.0533333,1.87925926 C35.5525926,2.38 35.177037,3.13111111 35.177037,4.00740741 C35.177037,4.8837037 35.4274074,5.63481481 36.0533333,6.13555556 Z" id="Shape"></path>
                <polygon id="Shape" points="43.3140741 7.76296296 43.3140741 0.25185185 44.4407407 0.25185185 48.0711111 6.13555556 48.0711111 6.13555556 48.0711111 4.63333333 48.0711111 0.25185185 49.0725926 0.25185185 49.0725926 7.76296296 48.0711111 7.76296296 44.1903704 1.62888889 44.1903704 1.62888889 44.1903704 3.13111111 44.1903704 7.76296296"></polygon>
            </g>
        </g>
        <g id="Group-3" transform="translate(51.000000, 21.000000)" fill="#FFFFFF" fill-rule="nonzero">
            <path d="M34.2511111,6.2903704 C31.2466667,6.2903704 28.8681481,8.5437037 28.8681481,11.6733333 C28.8681481,14.6777778 31.2466667,17.0562963 34.2511111,17.0562963 C37.2555556,17.0562963 39.6340741,14.802963 39.6340741,11.6733333 C39.6340741,8.4185185 37.2555556,6.2903704 34.2511111,6.2903704 Z M34.2511111,14.802963 C32.6237037,14.802963 31.2466667,13.4259259 31.2466667,11.5481481 C31.2466667,9.6703704 32.6237037,8.2933333 34.2511111,8.2933333 C35.8785185,8.2933333 37.2555556,9.5451852 37.2555556,11.5481481 C37.2555556,13.4259259 35.8785185,14.802963 34.2511111,14.802963 Z M22.6088889,6.2903704 C19.6044444,6.2903704 17.2259259,8.5437037 17.2259259,11.6733333 C17.2259259,14.6777778 19.6044444,17.0562963 22.6088889,17.0562963 C25.6133333,17.0562963 27.9918519,14.802963 27.9918519,11.6733333 C27.9918519,8.4185185 25.6133333,6.2903704 22.6088889,6.2903704 Z M22.6088889,14.802963 C20.9814815,14.802963 19.6044444,13.4259259 19.6044444,11.5481481 C19.6044444,9.6703704 20.9814815,8.2933333 22.6088889,8.2933333 C24.2362963,8.2933333 25.6133333,9.5451852 25.6133333,11.5481481 C25.6133333,13.4259259 24.2362963,14.802963 22.6088889,14.802963 Z M8.7133333,7.9177778 L8.7133333,10.1711111 L14.0962963,10.1711111 C13.9711111,11.422963 13.4703704,12.4244444 12.8444444,13.0503704 C12.0933333,13.8014815 10.8414815,14.6777778 8.7133333,14.6777778 C5.3333333,14.6777778 2.8296296,12.0488889 2.8296296,8.6688889 C2.8296296,5.2888889 5.4585185,2.66 8.7133333,2.66 C10.4659259,2.66 11.842963,3.4111111 12.8444444,4.2874074 L14.4718519,2.66 C13.0948148,1.4081481 11.3422222,0.4066667 8.8385185,0.4066667 C4.3318519,0.4066667 0.4511111,4.1622222 0.4511111,8.6688889 C0.4511111,13.1755556 4.3318519,16.9311111 8.8385185,16.9311111 C11.3422222,16.9311111 13.0948148,16.18 14.597037,14.5525926 C16.0992593,13.0503704 16.6,10.9222222 16.6,9.2948148 C16.6,8.7940741 16.6,8.2933333 16.4748148,7.9177778 L8.7133333,7.9177778 Z M65.547407,9.6703704 C65.046667,8.4185185 63.794815,6.2903704 61.040741,6.2903704 C58.286667,6.2903704 56.033333,8.4185185 56.033333,11.6733333 C56.033333,14.6777778 58.286667,17.0562963 61.291111,17.0562963 C63.66963,17.0562963 65.171852,15.5540741 65.672593,14.6777778 L63.92,13.4259259 C63.294074,14.3022222 62.542963,14.9281481 61.291111,14.9281481 C60.039259,14.9281481 59.288148,14.4274074 58.662222,13.3007407 L65.797778,10.2962963 L65.547407,9.6703704 Z M58.286667,11.422963 C58.286667,9.42 59.914074,8.2933333 61.040741,8.2933333 C61.917037,8.2933333 62.793333,8.7940741 63.043704,9.42 L58.286667,11.422963 Z M52.402963,16.5555556 L54.781481,16.5555556 L54.781481,0.9074074 L52.402963,0.9074074 L52.402963,16.5555556 Z M48.6474074,7.417037 C48.0214815,6.7911111 47.02,6.1651852 45.7681481,6.1651852 C43.1392593,6.1651852 40.6355556,8.5437037 40.6355556,11.5481481 C40.6355556,14.5525926 43.0140741,16.8059259 45.7681481,16.8059259 C47.02,16.8059259 48.0214815,16.18 48.5222222,15.5540741 L48.6474074,15.5540741 L48.6474074,16.3051852 C48.6474074,18.3081481 47.5207407,19.4348148 45.7681481,19.4348148 C44.3911111,19.4348148 43.3896296,18.4333333 43.1392593,17.557037 L41.1362963,18.4333333 C41.7622222,19.8103704 43.2644444,21.562963 45.8933333,21.562963 C48.6474074,21.562963 50.900741,19.9355556 50.900741,16.0548148 L50.900741,6.5407407 L48.6474074,6.5407407 L48.6474074,7.417037 Z M45.8933333,14.802963 C44.2659259,14.802963 42.8888889,13.4259259 42.8888889,11.5481481 C42.8888889,9.6703704 44.2659259,8.2933333 45.8933333,8.2933333 C47.5207407,8.2933333 48.7725926,9.6703704 48.7725926,11.5481481 C48.7725926,13.4259259 47.5207407,14.802963 45.8933333,14.802963 Z M76.438519,0.9074074 L70.805185,0.9074074 L70.805185,16.5555556 L73.183704,16.5555556 L73.183704,10.6718519 L76.438519,10.6718519 C79.067407,10.6718519 81.571111,8.7940741 81.571111,5.7896296 C81.571111,2.7851852 79.067407,0.9074074 76.438519,0.9074074 Z M76.563704,8.4185185 L73.183704,8.4185185 L73.183704,3.0355556 L76.563704,3.0355556 C78.316296,3.0355556 79.317778,4.5377778 79.317778,5.6644444 C79.192593,7.0414815 78.191111,8.4185185 76.563704,8.4185185 Z M90.96,6.1651852 C89.207407,6.1651852 87.454815,6.9162963 86.828889,8.5437037 L88.957037,9.42 C89.457778,8.5437037 90.208889,8.2933333 91.085185,8.2933333 C92.337037,8.2933333 93.463704,9.0444444 93.588889,10.2962963 L93.588889,10.4214815 C93.213333,10.1711111 92.211852,9.7955556 91.21037,9.7955556 C88.957037,9.7955556 86.703704,11.0474074 86.703704,13.3007407 C86.703704,15.4288889 88.581481,16.8059259 90.584444,16.8059259 C92.211852,16.8059259 92.962963,16.0548148 93.588889,15.3037037 L93.714074,15.3037037 L93.714074,16.5555556 L95.967407,16.5555556 L95.967407,10.5466667 C95.717037,7.7925926 93.588889,6.1651852 90.96,6.1651852 Z M90.70963,14.802963 C89.958519,14.802963 88.831852,14.4274074 88.831852,13.4259259 C88.831852,12.1740741 90.208889,11.7985185 91.335556,11.7985185 C92.337037,11.7985185 92.837778,12.0488889 93.463704,12.2992593 C93.213333,13.8014815 91.961481,14.802963 90.70963,14.802963 Z M103.854074,6.5407407 L101.225185,13.3007407 L101.1,13.3007407 L98.345926,6.5407407 L95.842222,6.5407407 L99.973333,16.0548148 L97.594815,21.3125926 L99.973333,21.3125926 L106.357778,6.5407407 L103.854074,6.5407407 Z M82.822963,16.5555556 L85.201481,16.5555556 L85.201481,0.9074074 L82.822963,0.9074074 L82.822963,16.5555556 Z" id="Shape"></path>
        </g>
        <g id="Group-4" transform="translate(12.000000, 8.000000)" fill-rule="nonzero">
            <path d="M1.01925959,1.38888893 C0.64370404,1.76444448 0.39333367,2.39037041 0.39333367,3.14148152 L0.39333367,30.8074074 C0.39333367,31.5585186 0.64370404,32.1844445 1.01925959,32.56 L1.14444478,32.6851852 L16.6674077,17.1622223 L16.6674077,17.0370371 L16.6674077,16.9118519 L1.01925959,1.38888893 Z" id="Shape" fill="url(#linearGradient-1)"></path>
            <path d="M21.8000003,22.42 L16.6674077,17.2874074 L16.6674077,17.0370371 L16.6674077,16.9118519 L21.8000003,11.7792593 L21.9251855,11.9044445 L28.0592596,15.4096297 C29.8118522,16.4111111 29.8118522,18.0385186 28.0592596,19.04 L21.8000003,22.42 Z" id="Shape" fill="url(#linearGradient-2)"></path>
            <path d="M21.9251855,22.2948149 L16.6674077,17.0370371 L1.01925959,32.6851852 C1.64518552,33.3111111 2.52148181,33.3111111 3.64814848,32.8103704 L21.9251855,22.2948149" id="Shape" fill="url(#linearGradient-3)"></path>
            <path d="M21.9251855,11.7792593 L3.64814848,1.38888893 C2.52148181,0.762963 1.64518552,0.888148185 1.01925959,1.51407411 L16.6674077,17.0370371 L21.9251855,11.7792593 Z" id="Shape" fill="url(#linearGradient-4)"></path>
            <path d="M21.8000005,22.1696292 L3.64814863,32.4348144 C2.64666715,33.0607403 1.77037085,32.9355551 1.14444493,32.4348144 L1.01925974,32.5599996 L1.14444493,32.6851847 C1.77037085,33.1859255 2.64666715,33.3111107 3.64814863,32.6851847 L21.8000005,22.1696292 Z" id="Shape" fill="#000000" opacity="0.2"></path>
            <path d="M1.01925974,32.4348144 C0.643704185,32.0592588 0.518519,31.4333329 0.518519,30.6822218 L0.518519,30.807407 C0.518519,31.5585181 0.76888937,32.184444 1.14444493,32.5599996 L1.14444493,32.4348144 L1.01925974,32.4348144 Z" id="Shape" fill="#000000" opacity="0.12"></path>
            <path d="M28.0592596,18.6644445 L21.8000003,22.1696297 L21.9251855,22.2948149 L28.0592596,18.7896297 C28.9355559,18.2888889 29.3111114,17.662963 29.3111114,17.0370371 C29.3111114,17.662963 28.8103707,18.1637037 28.0592596,18.6644445 Z" id="Shape" fill="#000000" opacity="0.12"></path>
            <path d="M3.64814848,1.51407411 L28.0592596,15.4096297 C28.8103707,15.9103704 29.3111114,16.4111111 29.3111114,17.0370371 C29.3111114,16.4111111 28.9355559,15.7851852 28.0592596,15.2844445 L3.64814848,1.38888893 C1.89555589,0.387407444 0.51851885,1.26370374 0.51851885,3.2666667 L0.51851885,3.39185189 C0.51851885,1.38888893 1.89555589,0.51259263 3.64814848,1.51407411 Z" id="Shape" fill="#FFFFFF" opacity="0.25"></path>
        </g>
    </g>
</svg>